<?xml version="1.0" standalone="no"?>
<!DOCTYPE svg PUBLIC "-//W3C//DTD SVG 20010904//EN"
 "http://www.w3.org/TR/2001/REC-SVG-20010904/DTD/svg10.dtd">
<svg version="1.0" xmlns="http://www.w3.org/2000/svg"
 width="1280.000000pt" height="1160.000000pt" viewBox="0 0 1280.000000 1160.000000"
 preserveAspectRatio="xMidYMid meet">
<metadata>
Created by potrace 1.15, written by Peter Selinger 2001-2017
</metadata>
<g transform="translate(0.000000,1160.000000) scale(0.100000,-0.100000)"
fill="#000000" stroke="none">
<path d="M5185 10539 c-254 -16 -562 -76 -815 -159 -484 -158 -954 -432 -1305
-761 -33 -31 -79 -73 -103 -94 -59 -52 -273 -299 -351 -404 -124 -168 -235
-348 -327 -531 -193 -385 -289 -700 -354 -1168 -26 -187 -29 -674 -4 -841 25
-171 54 -328 85 -453 197 -806 694 -1535 1377 -2020 586 -416 1256 -637 1982
-655 499 -12 997 83 1467 283 87 36 167 64 186 64 50 0 78 -25 268 -240 46
-52 109 -122 139 -155 74 -78 125 -136 240 -270 118 -137 137 -158 285 -319
129 -141 415 -459 480 -535 22 -25 141 -158 264 -296 124 -137 259 -288 301
-335 41 -47 77 -87 80 -90 3 -3 54 -59 112 -125 161 -183 231 -243 357 -305
177 -88 441 -104 644 -39 145 46 315 155 416 265 100 109 190 268 227 404 14
50 18 102 18 230 0 182 -8 224 -69 355 -52 112 -60 122 -583 705 -102 113
-233 259 -292 325 -198 221 -402 449 -484 540 -44 49 -99 110 -121 135 -21 25
-93 101 -160 170 -155 162 -263 282 -356 400 -42 52 -105 127 -141 165 -113
121 -198 225 -204 250 -8 33 4 65 65 164 124 204 278 557 346 791 114 396 168
832 146 1182 -42 667 -224 1233 -569 1768 -198 307 -474 610 -780 853 -161
129 -403 283 -587 375 -597 298 -1189 414 -1880 371z m438 -530 c265 -16 492
-58 744 -139 643 -205 1198 -620 1575 -1175 274 -403 436 -824 503 -1310 9
-60 19 -202 22 -315 14 -507 -97 -1000 -327 -1446 -123 -238 -278 -464 -319
-464 -25 0 -54 35 -91 110 -119 238 -339 584 -488 769 -292 361 -526 547 -814
645 -154 53 -215 51 -350 -10 -219 -98 -339 -139 -513 -175 -279 -57 -609 2
-1005 182 -118 53 -187 57 -289 15 -350 -142 -730 -551 -1104 -1189 -67 -115
-130 -213 -140 -219 -29 -15 -63 15 -128 115 -114 175 -270 515 -333 722 -92
307 -126 543 -126 884 0 384 40 623 163 986 197 579 577 1090 1080 1453 158
114 373 239 510 298 384 165 727 247 1122 267 33 2 77 4 98 5 22 1 116 -3 210
-9z"/>
<path d="M5097 9164 c-219 -36 -458 -153 -639 -311 -204 -179 -366 -468 -413
-742 -20 -110 -19 -344 0 -457 79 -459 427 -855 870 -993 282 -87 595 -79 855
22 377 146 668 458 784 838 101 331 60 715 -106 1005 -100 175 -218 307 -374
416 -241 170 -467 239 -765 237 -74 -1 -169 -7 -212 -15z"/>
</g>
</svg>
